<svg width="84" height="84" viewBox="0 0 84 84" fill="none" xmlns="http://www.w3.org/2000/svg">
<circle cx="42" cy="42" r="42" fill="#ffd3da"/>
<ellipse cx="42.3" cy="41.8" rx="29.3" ry="28.8" fill="#f14e4e"/>
<path d="M41.9397 52.0003C42.7836 52.0053 43.4926 52.2989 44.0664 52.8811C44.6416 53.4619 44.9267 54.1743 44.9216 55.0182C44.9165 55.8622 44.6229 56.5711 44.0408 57.145C43.46 57.7202 42.7476 58.0052 41.9036 58.0002C41.0596 57.9951 40.3507 57.7015 39.7769 57.1194C39.203 56.5372 38.918 55.8249 38.9217 54.9822C38.9254 54.1395 39.219 53.4306 39.8025 52.8555C40.3833 52.2803 41.0957 51.9952 41.9397 52.0003ZM44.0958 26.0128L43.9729 46.4724L39.973 46.4484L40.0959 25.9887L44.0958 26.0128Z" fill="#EAECEF"/>
</svg>
