<svg width="20" height="20" viewBox="0 0 20 20" fill="none" xmlns="http://www.w3.org/2000/svg">
<path d="M9.99996 18.9584C5.05829 18.9584 1.04163 14.9417 1.04163 10C1.04163 5.05835 5.05829 1.04169 9.99996 1.04169C14.9416 1.04169 18.9583 5.05835 18.9583 10C18.9583 14.9417 14.9416 18.9584 9.99996 18.9584ZM9.99996 2.29169C5.74996 2.29169 2.29163 5.75002 2.29163 10C2.29163 14.25 5.74996 17.7084 9.99996 17.7084C14.25 17.7084 17.7083 14.25 17.7083 10C17.7083 5.75002 14.25 2.29169 9.99996 2.29169Z" fill="#111315"/>
<path d="M13.0916 13.275C12.9833 13.275 12.875 13.25 12.775 13.1834L10.1916 11.6417C9.54995 11.2584 9.07495 10.4167 9.07495 9.67503V6.25836C9.07495 5.9167 9.35828 5.63336 9.69995 5.63336C10.0416 5.63336 10.325 5.9167 10.325 6.25836V9.67503C10.325 9.97503 10.575 10.4167 10.8333 10.5667L13.4166 12.1084C13.7166 12.2834 13.8083 12.6667 13.6333 12.9667C13.5083 13.1667 13.3 13.275 13.0916 13.275Z" fill="#111315"/>
</svg>
