<?xml version="1.0" encoding="utf-8"?>
<!-- Generator: Adobe Illustrator 27.1.1, SVG Export Plug-In . SVG Version: 6.00 Build 0)  -->
<svg version="1.1" id="Layer_1" xmlns="http://www.w3.org/2000/svg" xmlns:xlink="http://www.w3.org/1999/xlink" x="0px" y="0px"
	 viewBox="0 0 1080 352.5" style="enable-background:new 0 0 1080 352.5;" xml:space="preserve">
<style type="text/css">
	.st0{fill:#30C1F1;}
	.st1{fill:#2FC1F1;}
	.st2{fill:#31C1F1;}
	.st3{fill:#34C2F1;}
	.st4{fill:#75D2F5;}
	.st5{fill:#51CBF3;}
	.st6{fill:#92DFF8;}
	.st7{fill:#A4E4F9;}
	.st8{fill:#D2F2FD;}
	.st9{fill:#C2ECFA;}
	.st10{fill:none;stroke:#000000;stroke-width:8;stroke-miterlimit:10;}
</style>
<g>
	<path class="st0" d="M786.2,246.1c0.9,0,1.9,0,2.8,0c0.7,0.5,0.7,0.5,1.4,0c3.3-0.1,6.5-0.6,9.6-1.4c2.5-0.7,4.8-1.7,7-3.2
		c1.9-1.4,3.5-3.1,4.7-5.1c1.3-2.3,2.2-4.8,2.6-7.4c0.4-2.1,0.5-4.3,0.5-6.5c0-1.2,0-2.5,0-3.7c-0.1-0.2-0.3-0.3-0.5-0.1
		c-3.4,1.8-6.9,3.3-10.6,4.2c-2.8,0.7-5.7,1.1-8.5,1.2c-1.2,0-2.3,0.1-3.5,0c-5.4-0.2-10.7-1.1-15.7-3.2
		c-5.6-2.3-10.3-5.9-13.9-10.7c-3.8-5.1-6.4-10.8-7.6-17.1c-0.5-2.5-0.9-5.1-1-7.6c-0.1-1.8-0.3-3.6-0.3-5.4
		c0.2-4.7,0.6-9.3,1.8-13.9c1.5-5.5,3.7-10.6,7.1-15.1c3.2-4.3,7.2-7.7,11.9-10.3c4.1-2.3,8.5-3.9,13.1-4.8c1.8-0.4,3.7-0.6,5.6-0.7
		c4.5-0.2,9-0.2,13.6,0.1c2.1,0.1,4.2,0.3,6.3,0.7c0.8,0.2,1.5,0.2,2.3,0.3c0.2,0.2,0.4,0.3,0.6,0.2c3.1,0.6,6.1,1.2,9.2,1.8
		c1.8,0.4,3.6,0.8,5.5,1.2c0.7,0.1,0.9,0.5,0.9,1.2c0,0.1,0,0.2,0,0.2c0,3.1,0.1,6.2,0.1,9.3c0,22.9,0,45.8,0,68.7
		c0,3-0.1,5.9-0.4,8.9c-0.4,4.3-1.4,8.6-3.1,12.6c-2.4,5.5-6.1,9.9-11.2,13.1c-3.6,2.2-7.5,3.7-11.7,4.7c-3.3,0.8-6.6,1.2-9.9,1.5
		c-3.2,0.3-6.4,0.3-9.6,0.3c-3.1,0-6.2-0.4-9.3-0.7c-4.9-0.6-9.7-1.7-14.4-3c-0.9-0.2-1.8-0.6-2.7-0.9c-0.3-0.1-0.5-0.4-0.4-0.8
		c0.5-2.4,1-4.7,1.5-7.1c0.4-1.9,0.8-3.8,1.2-5.7c0.1-0.3,0.5-0.5,0.7-0.4c0.3,0.1,0.6,0.2,0.9,0.3c3.7,1.2,7.5,2.2,11.3,2.9
		c2.8,0.6,5.7,0.9,8.5,1.2c0.8,0.1,1.6,0.1,2.3,0.1C785.5,246.5,785.5,246.5,786.2,246.1z M814.7,177.8c0-4,0-8,0-11.9
		c0-4.1,0-8.3,0-12.4c0-0.5,0-1.1,0-1.6c0-0.3-0.2-0.6-0.5-0.7c-0.6-0.2-1.2-0.4-1.8-0.5c-1.4-0.2-2.8-0.4-4.2-0.6
		c-2.7-0.4-5.4-0.7-8.1-0.7c-1.2,0-2.3,0-3.5,0c-2.5,0-5,0.3-7.4,1c-5.8,1.5-10.5,4.7-13.8,9.8c-1.3,2-2.4,4.2-3.2,6.5
		c-0.8,2.2-1.3,4.5-1.6,6.8c-0.4,2.5-0.4,5-0.6,7.4c0,0.4,0,0.8,0.1,1.2c0.1,0.9,0.1,1.7,0.2,2.6c0.1,1.5,0.2,2.9,0.5,4.4
		c0.7,4.2,2.3,8.1,4.7,11.6c4.1,5.9,9.8,8.9,16.9,9.5c2.7,0.2,5.4,0.1,8.2-0.3c2.6-0.4,5-1,7.4-2c2.2-0.8,4.3-1.9,6.2-3.3
		c0.4-0.3,0.6-0.7,0.6-1.2c0-0.6,0-1.2,0-1.9C814.7,193.6,814.7,185.7,814.7,177.8z"/>
	<path class="st1" d="M220.1,157.1c0.9,0,1.9,0.1,2.8,0.1c14.6,0,29.2,0,43.7,0c0.8,0,1.6,0,2.3,0c0.4,0,0.7,0.3,0.7,0.8
		c0,0.2,0,0.3,0,0.5c0,3.8,0,7.6,0,11.5c0,0.3,0,0.6-0.1,0.9c0,0.1-0.2,0.3-0.3,0.3c-0.2,0.1-0.5,0.1-0.7,0.1c-0.7,0-1.4,0-2.1,0
		c-14.7,0-29.5,0-44.2,0c-0.8,0-1.6,0-2.3,0.1c-0.3,0-0.6,0.3-0.6,0.6c0,0.5-0.1,0.9-0.1,1.4c0,12.5,0,24.9,0,37.4
		c0,2.2,0,2.2,2.2,2.2c18.6,0,37.1,0,55.7,0c0.7,0,1.4,0,2.1,0c0.9,0,1.1,0.2,1.2,1.1c0,0.2,0,0.3,0,0.5c0,3.8,0,7.6,0,11.5
		c0,0.3,0,0.6-0.1,0.9c-0.1,0.2-0.3,0.4-0.5,0.4c-0.2,0.1-0.5,0.1-0.7,0.1c-0.6,0-1.2,0-1.9,0c-23.9,0-47.9,0-71.8,0
		c-0.7,0-1.4,0-2.1,0c-0.7,0-0.9-0.3-1-1c0-0.5,0-1.1,0-1.6c0-38.4,0-76.8,0-115.2c0-0.5,0-1.1,0-1.6c0-0.7,0.3-0.9,1.1-0.9
		c0.5,0,1.1,0,1.6,0c22.6,0,45.2,0,67.8,0c0.8,0,1.6,0,2.3,0.1c0.1,0.2,0.3,0.2,0.5,0.1c0.1,0.1,0.2,0.2,0.2,0.4
		c0.1,0.1,0.1,0.3,0.1,0.5c0,3.7,0,7.5,0,11.2c0,2.3-0.2,2.2-2.3,2.2c-16.6,0-33.2,0-49.8,0c-1.1,0-2.2,0-3.3,0
		c-0.3,0-0.6,0-0.9,0.1c-0.2,0.1-0.4,0.3-0.4,0.5c-0.1,0.7-0.1,1.4-0.1,2.1c0,10.1,0,20.3,0,30.4c0,0.5,0,0.9,0,1.4
		c0,0.3,0.1,0.6,0.1,0.9C219.5,157.2,219.5,157.2,220.1,157.1z"/>
	<path class="st0" d="M484.4,92.7c0,0.9,0,1.7,0,2.6c0,13.3,0,26.6,0,40c0,0.9,0,1.9,0.1,2.8c0,0.4,0.3,0.5,0.6,0.5
		c0.3-0.1,0.5-0.3,0.8-0.4c0.7-0.2,1.5-0.4,2.2-0.6c0.3,0.1,0.4,0,0.6-0.2c1-0.2,2.1-0.5,3.1-0.7c0.2,0.1,0.4,0,0.6-0.2
		c1.4-0.2,2.7-0.4,4.1-0.7c2.4-0.5,4.9-0.5,7.4-0.5c1.8,0,3.5,0.1,5.3,0.1c0.5,0.4,0.5,0.4,0.9,0.1c1.6,0.2,3.1,0.4,4.7,0.7
		c0.6,0.1,1.2,0.2,1.8,0.3c0.1,0.2,0.3,0.3,0.6,0.2c4.4,1,8.4,2.9,11.9,5.7c1.6,1.3,3,2.7,4.2,4.3c2,2.6,3.7,5.4,4.8,8.5
		c0.8,2.2,1.4,4.5,1.8,6.8c0.6,3.2,0.9,6.5,1.1,9.7c0.2,2.9,0.2,5.8,0.2,8.6c0,14.7,0,29.5,0,44.2c0,0.8,0,1.6-0.1,2.3
		c0,0.3-0.3,0.6-0.6,0.6c-0.4,0-0.8,0.1-1.2,0.1c-2.6,0-5.1,0-7.7,0c-1.8,0-3.6,0-5.4,0c-0.3,0-0.6,0-0.9-0.1
		c-0.2-0.1-0.3-0.3-0.4-0.5c-0.1-0.8-0.1-1.6-0.1-2.3c0-14.2,0-28.4,0-42.5c0-1.3,0-2.6,0-4c0-4.5-0.5-9-1.5-13.4
		c-0.5-2.1-1.2-4.2-2.2-6.1c-1.7-3.2-4.2-5.6-7.6-7c-2-0.8-4-1.3-6.1-1.6c-2.8-0.4-5.6-0.5-8.4-0.2c-2.2,0.2-4.5,0.5-6.7,0.9
		c-2,0.4-4,0.6-5.9,1.2c-0.6,0.2-1.2,0.4-1.8,0.6c-0.3,0.1-0.5,0.4-0.5,0.7c0,0.7,0,1.4,0,2.1c0,15.1,0,30.2,0,45.3
		c0,8.2,0,16.4,0,24.5c0,0.7-0.1,1.4-0.1,2.1c0,0.1-0.2,0.3-0.3,0.3c-0.1,0.1-0.3,0.1-0.5,0.1c-4.8,0-9.5,0-14.3,0
		c-0.1,0-0.2,0-0.2,0c-0.3,0-0.6-0.3-0.6-0.6c0-0.2-0.1-0.5-0.1-0.7c0-0.7,0-1.4,0-2.1c0-41.8,0-83.7,0-125.5c0-0.8,0-1.6,0-2.3
		c0-0.5,0.3-0.9,0.8-1c1.6-0.3,3.2-0.6,4.8-0.9c3.3-0.6,6.6-1.1,9.9-1.7C484.1,92.6,484.3,92.6,484.4,92.7z"/>
	<path class="st0" d="M892.9,214.6c3.6,0.5,7.1,0.6,10.7,0.6c6.4-0.2,12.7-1.3,18.7-3.6c0.4-0.2,0.9-0.3,1.3-0.4
		c0.1,0,0.3,0.1,0.4,0.2c0.1,0.1,0.1,0.3,0.2,0.4c0.7,4,1.4,8,2,12c0.1,0.5-0.1,0.8-0.5,0.9c-0.6,0.3-1.1,0.5-1.7,0.7
		c-3.6,1.3-7.3,2.2-11.1,2.9c-6.8,1.3-13.7,1.3-20.5,0.8c-5.9-0.4-11.5-1.8-16.8-4.6c-7.2-3.7-12.7-9.2-16.5-16.4
		c-2-3.8-3.4-7.8-4.2-12.1c-0.5-2.6-0.8-5.2-1.1-7.9c-0.2-2.1-0.3-4.2-0.3-6.3c0-3.4,0.3-6.7,0.8-10c0.5-3.8,1.5-7.5,2.9-11
		c1.6-4.1,3.6-7.9,6.4-11.4c4.4-5.6,9.9-9.7,16.5-12.2c3.3-1.2,6.7-2,10.2-2.5c0.6-0.1,1.2-0.1,1.9-0.1c1.9,0,3.7-0.1,5.6,0
		c5.1,0.2,10,1.3,14.7,3.5c3.9,1.8,7.3,4.4,10.2,7.7c3.4,3.9,5.6,8.4,7.1,13.3c1.1,3.5,1.8,7.1,2.2,10.7c0.6,5,0.7,9.9,0.6,14.9
		c0,0.3-0.1,0.6-0.1,0.9c0,0.2-0.4,0.6-0.6,0.6c-0.3,0-0.6,0.1-0.9,0.1c-0.7,0-1.4,0-2.1,0c-18.3,0-36.6,0-55,0c-0.6,0-1.2,0-1.9,0
		c-1.4,0-1.5,0.3-1.3,1.5c0.3,2.2,0.6,4.5,1.1,6.7c0.7,2.7,1.6,5.4,3,7.8c2.3,4.1,5.4,7.4,9.7,9.4c2.3,1.1,4.6,1.9,7.1,2.3
		c0.2,0,0.5,0.1,0.7,0.1C892.5,214.6,892.7,214.7,892.9,214.6z M893.2,173.5c6.6,0,13.2,0,19.9,0c0.7,0,1.4,0,2.1-0.1
		c0.2,0,0.4-0.2,0.5-0.4c0.1-0.3,0.1-0.6,0.1-0.9c0-2.4-0.4-4.8-0.9-7.2c-1.1-4.6-3.4-8.5-6.9-11.7c-2-1.9-4.4-3.2-7.1-3.9
		c-3.2-0.9-6.4-1.1-9.7-0.6s-6.3,1.7-9,3.6c-3.8,2.6-6.5,6-8.4,10.1c-1.5,3.2-2.2,6.6-2.8,10.1c0,0.1,0,0.2,0,0.2
		c0,0.3,0.3,0.7,0.5,0.7c0.7,0,1.4,0.1,2.1,0.1C880.1,173.5,886.7,173.5,893.2,173.5z"/>
	<path class="st0" d="M593,134.8c2.2,0,4.4,0,6.5,0c3.5,0,7,0.5,10.4,1.5c3.5,0.9,6.8,2.2,9.8,4.4c3.8,2.7,6.8,6.2,8.7,10.5
		c1.3,2.8,2,5.7,2.5,8.7c0.6,3.6,0.8,7.3,0.8,10.9c0,17.4,0,34.8,0,52.1c0,0.8,0,1.6-0.1,2.3c0,0.3-0.3,0.6-0.6,0.7
		c-1.9,0.3-3.8,0.7-5.7,1c-2.1,0.3-4.2,0.6-6.3,0.8c-2.2,0.2-4.5,0.4-6.7,0.6c-2.9,0.3-5.7,0.5-8.6,0.7c-1.9,0.1-3.7,0.1-5.6,0.1
		c-0.2-0.1-0.4-0.3-0.6-0.3c-0.7,0-1.4,0-2.1,0c-0.2,0-0.4,0.2-0.6,0.3c-1.7,0.1-3.4,0-5.1-0.2c-1.6-0.2-3.3-0.4-4.9-0.7
		c-3.7-0.7-7.3-1.8-10.6-3.5c-5.4-2.8-9-7.1-11.2-12.7c-0.8-2-1.2-4-1.5-6.1c-0.4-2.4-0.4-4.8-0.4-7.2c0-2.2,0.4-4.3,1-6.4
		c1.4-5.1,4.3-9.1,8.5-12.3c3.5-2.6,7.4-4.3,11.5-5.5c2.5-0.7,5-1.1,7.5-1.5c2-0.3,4-0.4,6.1-0.5c0.8,0,1.6-0.1,2.3-0.1
		c1.1-0.1,2.2-0.1,3.3,0.1c1.8,0.2,3.6,0.2,5.3,0.5c2.6,0.5,5.2,0.8,7.8,1.4c0.2,0.1,0.5,0.1,0.7,0s0.4-0.2,0.5-0.4
		c0.1-0.3,0.1-0.6,0.1-0.9c0-1,0-2,0-3c0-2.7-0.4-5.4-1-8.1c-0.6-2.5-1.7-4.8-3.3-6.9c-0.7-0.9-1.5-1.8-2.5-2.5
		c-3-2.2-6.3-3.5-9.9-3.8c-3.9-0.3-7.8-0.2-11.7,0.1c-4.7,0.4-9.3,1.3-13.7,2.7c-0.2,0.1-0.4,0.1-0.7,0.2c-0.2,0.1-0.5-0.1-0.6-0.3
		c-0.1-0.8-0.3-1.5-0.4-2.3c-0.5-3.3-0.9-6.6-1.4-9.9c0-0.3,0.2-0.7,0.4-0.8c0.8-0.3,1.6-0.7,2.4-0.9c2.6-0.7,5.1-1.3,7.8-1.6
		c0.2,0.1,0.4,0,0.6-0.2c2.5-0.5,5.1-0.7,7.7-1c0.7-0.1,1.4-0.1,2.1-0.1C592.3,135.2,592.3,135.2,593,134.8z M615.8,201.1
		c0-3.7,0-7.3,0-11c0-0.6,0-1.2,0-1.9c0-0.5-0.3-0.9-0.8-1c-0.6-0.2-1.2-0.4-1.8-0.5c-4-0.8-8-1.2-12.1-1.3
		c-1.6-0.1-3.1,0.2-4.7,0.3c-1.6,0.1-3.1,0.2-4.6,0.5c-2.6,0.4-5.1,1.3-7.5,2.6c-1.5,0.8-2.7,1.8-3.8,3.1c-1.9,2-2.8,4.4-3,7.2
		c-0.1,2,0,4,0.5,6c0.9,3.6,2.8,6.4,6.3,8c1,0.5,2,0.9,3,1.2c2.9,0.9,5.9,1.4,9,1.4c2.4,0,4.8,0,7.2,0c2.8,0,5.6-0.2,8.4-0.5
		c1.1-0.1,2.1-0.4,3.2-0.6c0.4-0.1,0.6-0.4,0.7-0.9c0-0.5,0-1.1,0-1.6C615.8,208.5,615.8,204.8,615.8,201.1z"/>
	<path class="st0" d="M715.1,174.1c-0.3-4-0.8-7.9-1.9-11.7c-0.5-1.9-1.3-3.7-2.3-5.3c-1.7-2.7-4-4.6-6.9-5.7c-2-0.8-4-1.3-6.1-1.6
		c-4-0.5-7.9-0.5-11.9-0.1c-0.5,0-0.9,0.1-1.4,0.1c-0.5-0.4-0.5-0.4-0.9,0.1c-1.5,0.2-3.1,0.3-4.6,0.5c-1.2,0.2-2.5,0.4-3.7,0.6
		c-0.4,0.1-0.7,0.4-0.8,0.8c-0.1,0.5-0.1,0.9-0.1,1.4c0,0.7,0,1.4,0,2.1c0,22.9,0,45.8,0,68.7c0,0.7,0,1.4,0,2.1
		c0,1.2-0.2,1.4-1.3,1.4c-0.2,0-0.5,0-0.7,0c-4.1,0-8.1,0-12.2,0c-0.5,0-0.9,0-1.4-0.1c-0.2,0-0.4-0.2-0.4-0.5
		c0-0.2-0.1-0.5-0.1-0.7c0-0.7,0-1.4,0-2.1c0-27.1,0-54.2,0-81.3c0-0.8,0-1.6,0-2.3c0-0.6,0.2-0.8,0.8-1c1.9-0.5,3.8-0.9,5.7-1.3
		c3.3-0.6,6.6-1.2,9.9-1.8c0.9-0.2,1.9-0.2,2.8-0.3c0.2,0.1,0.4,0.1,0.6-0.1c0.3,0,0.6,0,0.9-0.1c0.5,0.3,0.5,0.3,0.9-0.1
		c0.5,0,0.9,0,1.4-0.1c6.2-0.7,12.5-0.6,18.8-0.3c1.5,0.1,3.1,0.4,4.6,0.6c0.2,0.2,0.4,0.3,0.6,0.2c5,0.9,9.5,2.8,13.6,5.9
		c3,2.3,5.3,5.2,7.2,8.5s3.1,6.8,3.8,10.5c0.6,3,1,6,1.2,9s0.3,5.9,0.3,8.9c0,15.2,0,30.4,0,45.6c0,0.8,0,1.6-0.1,2.3
		c0,0.3-0.3,0.6-0.6,0.6c-0.4,0-0.8,0.1-1.2,0.1c-4.2,0-8.4,0-12.6,0c-0.3,0-0.6,0-0.9,0c-0.5,0-0.8-0.4-0.8-0.9c0-0.3,0-0.6,0-0.9
		c0-0.5,0-1.1,0-1.6c0-13.6,0-27.3,0-40.9c0-2.6,0-5.3-0.1-7.9C715.5,174.5,715.5,174.5,715.1,174.1z"/>
	<path class="st2" d="M382.5,180.6c-0.1-1.8,0.2-3.6,0.3-5.3c0.3-2.9,0.8-5.7,1.5-8.5c2.2-8.4,6.4-15.6,12.7-21.6
		c2.7-2.5,5.7-4.5,9-6.1c3.6-1.8,7.3-3,11.3-3.6c2-0.3,4-0.7,6-0.6c1.9,0,3.9,0,5.8,0c0.5,0.4,0.5,0.4,0.9,0
		c5.8,0.4,11.4,1.3,16.9,3.3c2.6,0.9,2.6,0.7,1.8,3.4c-0.9,3.1-1.7,6.3-2.5,9.5c-0.1,0.4-0.3,0.9-0.5,1.3c0,0.1-0.3,0.2-0.4,0.2
		c-0.2,0-0.5-0.1-0.7-0.1c-3.3-1.4-6.8-2.3-10.3-2.8s-7.1-0.8-10.7-0.4c-2.8,0.3-5.5,0.9-8.2,1.9c-4.8,1.9-8.6,5-11.3,9.4
		c-1.7,2.7-2.8,5.7-3.6,8.8c-0.5,2.1-0.9,4.3-1.1,6.4c-0.3,2.9-0.4,5.7-0.3,8.6c0.1,3.7,0.5,7.3,1.4,10.9c1,4.1,2.8,7.9,5.5,11.2
		c2.5,2.9,5.5,5,9,6.5c2.4,1,4.9,1.5,7.4,1.9c3.1,0.5,6.2,0.5,9.3,0.3c1.7-0.1,3.4-0.3,5.1-0.5c0.2,0.1,0.4,0,0.6-0.2
		c0.7-0.1,1.5-0.2,2.2-0.3c0.3,0.1,0.5,0,0.6-0.2c2.2-0.5,4.4-1.1,6.5-1.9c0.4-0.2,0.9-0.3,1.3-0.4c0.1,0,0.3,0.1,0.4,0.2
		c0.2,1.1,0.5,2.1,0.6,3.2c0.4,2.4,0.8,4.9,1.2,7.4c0.1,0.6,0.2,1.2,0.2,1.8c0.1,0.5-0.2,0.9-0.7,1.1c-1.2,0.7-2.5,1.2-3.9,1.5
		c-2.6,0.6-5.2,1.1-7.8,1.5c-1.9,0.3-3.8,0.5-5.8,0.8c-0.7,0.1-1.4,0.1-2.1,0.1c-3.2,0.2-6.4,0.2-9.6-0.1c-1.6-0.1-3.2-0.4-4.8-0.7
		c-0.6-0.1-1.2-0.2-1.8-0.3c-0.2-0.2-0.3-0.3-0.6-0.2c-1.9-0.3-3.8-1-5.6-1.7c-5.8-2.3-10.9-5.8-15-10.5c-2.4-2.8-4.4-5.9-5.9-9.2
		c-2-4.2-3.2-8.6-3.9-13.2c-0.5-3.2-0.9-6.3-0.8-9.5c0.1-0.2,0.3-0.4,0.3-0.6c0-0.7,0-1.4,0-2.1C382.8,181,382.6,180.8,382.5,180.6z
		"/>
	<path class="st3" d="M374.9,228.2c-4.4,0-8.9,0-13.3,0c-3.7,0-7.5,0-11.2,0c-0.5,0-1.1,0-1.6,0c-0.4,0-0.7-0.2-1-0.5
		c-0.2-0.3-0.5-0.6-0.7-0.9c-3.5-5-7-10.1-10.6-15.1c-3.6-5.2-7.2-10.3-10.8-15.5c-0.3-0.4-0.6-0.7-0.9-1.1c-0.1-0.2-0.5-0.2-0.6,0
		c-1.1,1.2-2.2,2.4-3.3,3.6c-2.7,3.1-5.3,6.1-8,9.2c-3.7,4.3-7.5,8.6-11.2,12.9c-1.8,2.1-3.7,4.2-5.6,6.3c-0.2,0.2-0.4,0.5-0.6,0.7
		c-0.4,0.4-0.8,0.7-1.4,0.6c-1.9,0-3.7,0-5.6-0.1c-0.2-0.1-0.4-0.2-0.6-0.3c0.2-0.3,0.4-0.7,0.6-1c2.1-2.5,4.3-4.9,6.4-7.4
		c2.8-3.2,5.6-6.5,8.4-9.7c2.5-2.8,4.9-5.6,7.4-8.4c3.2-3.6,6.3-7.3,9.5-10.9c0.2-0.2,0.3-0.4,0.4-0.6s0.1-0.5,0.1-0.7
		c-0.2-0.5-0.5-0.9-0.8-1.4c-2.8-4-5.5-7.9-8.3-11.9c-3.2-4.5-6.3-9.1-9.5-13.6c-5-7.1-10-14.3-15-21.4c-0.4-0.6-0.8-1.2-1.1-1.8
		c-0.1-0.2,0.1-0.5,0.3-0.5c0.4,0,0.8-0.1,1.2-0.1c8,0,16.1,0,24.1,0c0.4,0,0.8,0,1.2,0c0.3,0,0.6,0.2,0.8,0.4
		c0.7,0.9,1.4,1.9,2.1,2.8c6.6,9.4,13.2,18.9,19.8,28.3c0.3,0.4,0.7,0.9,1,1.3c0.1,0.1,0.3,0.2,0.4,0c0.4-0.4,0.8-0.7,1.1-1.2
		c3-3.4,5.9-6.8,8.9-10.2c3.6-4.2,7.3-8.3,10.9-12.5c2.4-2.7,4.7-5.4,7.1-8.1c0.2-0.2,0.3-0.3,0.5-0.5c0.3-0.3,0.6-0.5,1-0.5
		c2.1,0,4.2,0,6.3,0c0.1,0,0.2,0,0.2,0.1s0.1,0.3,0,0.4c-0.4,0.5-0.7,1-1.1,1.5c-2.7,3.1-5.3,6.1-8,9.1c-3.6,4.2-7.3,8.3-10.9,12.5
		c-2.7,3.1-5.3,6.1-8,9.1c-1.3,1.5-2.6,2.9-3.8,4.4c-0.2,0.2-0.4,0.5-0.5,0.8c-0.1,0.2-0.1,0.5,0,0.7c0.3,0.5,0.6,1.1,1,1.6
		c2.2,3.2,4.5,6.4,6.7,9.6c2.5,3.6,5,7.1,7.5,10.7c6.3,9,12.6,18,18.9,27c0.4,0.6,0.7,1.2,1.1,1.8C375.2,227.9,375,228,374.9,228.2z
		 M357.7,222.3L357.7,222.3c1.5,0,3,0,4.4,0c0.5,0,0.9,0,1.4,0s0.7-0.4,0.5-0.8c-0.3-0.5-0.7-1-1-1.6c-3-4.3-6.1-8.7-9.1-13
		c-8.5-12.1-17-24.2-25.4-36.4c-5.4-7.7-10.7-15.3-16.1-23c-0.6-0.8-1.2-1.6-1.7-2.5c-0.5-0.8-1.2-1.1-2.2-1.1c-3.4,0-6.9,0-10.3,0
		c-0.2,0-0.5,0-0.7,0c-0.4,0-0.7,0.5-0.5,0.8c0.4,0.7,0.9,1.3,1.3,1.9c5.8,8.3,11.6,16.6,17.4,24.9c6.5,9.3,12.9,18.5,19.4,27.8
		c4.9,7,9.8,14.1,14.7,21.1c0.3,0.4,0.7,0.9,1,1.3c0.3,0.3,0.6,0.5,1,0.5C353.8,222.3,355.7,222.3,357.7,222.3z"/>
	<path class="st4" d="M382.5,180.6c0.1,0.2,0.3,0.4,0.3,0.6c0,0.7,0,1.4,0,2.1c0,0.2-0.2,0.4-0.3,0.6
		C382,182.8,382,181.7,382.5,180.6z"/>
	<path class="st5" d="M594.9,229.2c0.2-0.1,0.4-0.3,0.6-0.3c0.7,0,1.4,0,2.1,0c0.2,0,0.4,0.2,0.6,0.3
		C597,229.6,595.9,229.6,594.9,229.2z"/>
	<path class="st6" d="M786.2,246.1c-0.7,0.5-0.7,0.5-1.4,0C785.3,245.6,785.7,245.6,786.2,246.1z"/>
	<path class="st6" d="M593,134.8c-0.7,0.5-0.7,0.5-1.4,0C592.2,134.3,592.3,134.3,593,134.8z"/>
	<path class="st6" d="M790.4,246.1c-0.7,0.5-0.7,0.5-1.4,0C789.5,245.6,789.9,245.6,790.4,246.1z"/>
	<path class="st6" d="M430.2,134.8c-0.5,0.4-0.5,0.4-0.9,0C429.7,134.4,429.7,134.4,430.2,134.8z"/>
	<path class="st6" d="M510.2,135.3c-0.5,0.4-0.5,0.4-0.9-0.1C509.7,134.9,509.7,134.9,510.2,135.3z"/>
	<path class="st6" d="M683.7,149.8c0.5-0.4,0.5-0.4,0.9-0.1C684.2,150.1,684.2,150.1,683.7,149.8z"/>
	<path class="st6" d="M715.1,174.1c0.4,0.5,0.4,0.5,0,0.9C714.7,174.5,714.7,174.5,715.1,174.1z"/>
	<path class="st7" d="M680,135.7c-0.5,0.4-0.5,0.4-0.9,0.1C679.5,135.3,679.5,135.3,680,135.7z"/>
	<path class="st8" d="M485.9,138.1c-0.3,0.1-0.5,0.3-0.8,0.4s-0.6-0.1-0.6-0.5C485,138,485.4,138.1,485.9,138.1z"/>
	<path class="st9" d="M220.1,157.1c-0.6,0.1-0.6,0.1-0.7-0.4C219.7,156.7,219.9,156.8,220.1,157.1z"/>
	<path class="st4" d="M287.8,227.8c0.2,0.1,0.4,0.2,0.6,0.3c-0.1,0-0.3,0.1-0.4,0.1C287.7,228.3,287.6,228.1,287.8,227.8z"/>
	<path class="st8" d="M484.4,92.7c-0.2-0.1-0.3-0.1-0.5-0.2C484.2,92.3,484.4,92.4,484.4,92.7z"/>
	<path class="st4" d="M275.8,107c-0.2,0.1-0.4,0.1-0.5-0.1C275.4,106.9,275.6,107,275.8,107z"/>
	<path class="st6" d="M488.7,137.3c-0.1,0.2-0.3,0.3-0.6,0.2C488.3,137.3,488.4,137.2,488.7,137.3z"/>
	<path class="st6" d="M517.3,136.5c-0.3,0.1-0.5,0-0.6-0.2C516.9,136.2,517.1,136.3,517.3,136.5z"/>
	<path class="st7" d="M815.3,136.5c-0.3,0.1-0.5,0-0.6-0.2C814.9,136.2,815.1,136.3,815.3,136.5z"/>
	<path class="st6" d="M492.5,136.3c-0.2,0.2-0.4,0.3-0.6,0.2C492,136.3,492.2,136.2,492.5,136.3z"/>
	<path class="st6" d="M705.3,136.1c-0.2,0.1-0.4,0-0.6-0.2C705,135.8,705.2,135.9,705.3,136.1z"/>
	<path class="st7" d="M678.2,135.8c-0.2,0.2-0.4,0.3-0.6,0.1C677.8,135.8,678,135.7,678.2,135.8z"/>
	<path class="st6" d="M581.8,135.9c-0.2,0.2-0.4,0.3-0.6,0.2C581.4,135.9,581.6,135.8,581.8,135.9z"/>
	<path class="st6" d="M440.5,213.9c-0.2,0.2-0.3,0.3-0.6,0.2C440.1,213.9,440.3,213.8,440.5,213.9z"/>
	<path class="st6" d="M437.7,214.5c-0.2,0.2-0.4,0.3-0.6,0.2C437.3,214.4,437.5,214.3,437.7,214.5z"/>
	<path class="st6" d="M892.9,214.6c-0.3,0.1-0.4,0-0.6-0.2C892.6,214.3,892.8,214.4,892.9,214.6z"/>
	<path class="st4" d="M814.3,218.7c0.2-0.2,0.4-0.2,0.5,0.1C814.6,218.8,814.4,218.7,814.3,218.7z"/>
	<path class="st6" d="M374.9,228.2c0.2-0.1,0.3-0.2,0.5-0.4C375.4,228.1,375.2,228.2,374.9,228.2z"/>
	<path class="st6" d="M413.7,228c0.3-0.1,0.5,0,0.6,0.2C414.1,228.3,413.9,228.2,413.7,228z"/>
</g>
<rect x="147.3" y="138.5" width="7.5" height="72.5"/>
<rect x="170.2" y="154.9" width="7.5" height="72.5"/>
<rect x="147.4" y="219.8" width="28.2" height="7.5"/>
<circle class="st10" cx="166.7" cy="126.8" r="15.3"/>
</svg>
