<svg width="24" height="25" viewBox="0 0 24 25" fill="none" xmlns="http://www.w3.org/2000/svg">
<path d="M11.944 0.171875C8.77112 0.186682 5.73324 1.4575 3.4949 3.70633C1.25656 5.95516 -3.4549e-05 8.99896 7.12435e-10 12.1719C7.12441e-10 15.3545 1.26428 18.4067 3.51472 20.6572C5.76515 22.9076 8.8174 24.1719 12 24.1719C15.1826 24.1719 18.2348 22.9076 20.4853 20.6572C22.7357 18.4067 24 15.3545 24 12.1719C24 8.98928 22.7357 5.93703 20.4853 3.68659C18.2348 1.43616 15.1826 0.171875 12 0.171875L11.944 0.171875ZM16.906 7.39587C17.006 7.39388 17.227 7.41887 17.371 7.53587C17.4672 7.6186 17.5283 7.73477 17.542 7.86088C17.558 7.95388 17.578 8.16688 17.562 8.33288C17.382 10.2309 16.6 14.8349 16.202 16.9599C16.034 17.8599 15.703 18.1609 15.382 18.1899C14.686 18.2549 14.157 17.7299 13.482 17.2879C12.426 16.5949 11.829 16.1639 10.804 15.4879C9.619 14.7079 10.387 14.2779 11.062 13.5779C11.239 13.3939 14.309 10.6009 14.369 10.3479C14.376 10.3159 14.383 10.1979 14.313 10.1359C14.243 10.0739 14.139 10.0949 14.064 10.1119C13.958 10.1365 12.271 11.2515 9.003 13.4569C8.523 13.7869 8.089 13.9469 7.701 13.9369C7.273 13.9289 6.449 13.6959 5.836 13.4969C5.084 13.2519 4.487 13.1229 4.539 12.7079C4.56567 12.4919 4.86333 12.2709 5.432 12.0449C8.93 10.5209 11.2627 9.51621 12.43 9.03088C15.762 7.64488 16.455 7.40387 16.906 7.39587Z" fill="black"/>
</svg>
