<svg width="24" height="25" viewBox="0 0 24 25" fill="none" xmlns="http://www.w3.org/2000/svg">
<path d="M12.244 4.17188C12.778 4.17488 14.114 4.18787 15.534 4.24487L16.038 4.26687C17.467 4.33387 18.895 4.44987 19.604 4.64687C20.549 4.91287 21.291 5.68688 21.542 6.66888C21.942 8.22888 21.992 11.2709 21.998 12.0079L21.999 12.1599V12.3339C21.992 13.0709 21.942 16.1139 21.542 17.6729C21.288 18.6579 20.545 19.4329 19.604 19.6949C18.895 19.8919 17.467 20.0079 16.038 20.0749L15.534 20.0979C14.114 20.1539 12.778 20.1679 12.244 20.1699L12.009 20.1709H11.754C10.624 20.1639 5.898 20.1129 4.394 19.6949C3.45 19.4289 2.707 18.6549 2.456 17.6729C2.056 16.1129 2.006 13.0709 2 12.3339V12.0079C2.006 11.2709 2.056 8.22788 2.456 6.66888C2.71 5.68388 3.453 4.90887 4.395 4.64787C5.898 4.22887 10.625 4.17788 11.755 4.17188H12.244ZM9.999 8.67188V15.6719L15.999 12.1719L9.999 8.67188Z" fill="#26272E"/>
</svg>
