<svg width="16" height="16" viewBox="0 0 16 16" fill="none" xmlns="http://www.w3.org/2000/svg">
<path d="M8.66667 7.83333C8.54 7.83333 8.41333 7.78667 8.31333 7.68667C8.12 7.49333 8.12 7.17333 8.31333 6.98L13.78 1.51333C13.9733 1.32 14.2933 1.32 14.4867 1.51333C14.68 1.70667 14.68 2.02667 14.4867 2.22L9.02 7.68667C8.92 7.78667 8.79333 7.83333 8.66667 7.83333Z" fill="#F5F5F5"/>
<path d="M14.6667 5.03333C14.3933 5.03333 14.1667 4.80666 14.1667 4.53333V1.83333H11.4667C11.1933 1.83333 10.9667 1.60666 10.9667 1.33333C10.9667 1.05999 11.1933 0.833328 11.4667 0.833328H14.6667C14.94 0.833328 15.1667 1.05999 15.1667 1.33333V4.53333C15.1667 4.80666 14.94 5.03333 14.6667 5.03333Z" fill="#F5F5F5"/>
<path d="M9.99998 15.1667H5.99998C2.37998 15.1667 0.833313 13.62 0.833313 10V6C0.833313 2.38 2.37998 0.833328 5.99998 0.833328H7.33331C7.60665 0.833328 7.83331 1.05999 7.83331 1.33333C7.83331 1.60666 7.60665 1.83333 7.33331 1.83333H5.99998C2.92665 1.83333 1.83331 2.92666 1.83331 6V10C1.83331 13.0733 2.92665 14.1667 5.99998 14.1667H9.99998C13.0733 14.1667 14.1666 13.0733 14.1666 10V8.66666C14.1666 8.39333 14.3933 8.16666 14.6666 8.16666C14.94 8.16666 15.1666 8.39333 15.1666 8.66666V10C15.1666 13.62 13.62 15.1667 9.99998 15.1667Z" fill="#F5F5F5"/>
</svg>
