<svg width="20" height="20" viewBox="0 0 20 20" fill="none" xmlns="http://www.w3.org/2000/svg">
<path d="M14.8248 18.9581H5.17484C2.8915 18.9581 1.0415 17.0998 1.0415 14.8165V8.64148C1.0415 7.50815 1.7415 6.08315 2.6415 5.38315L7.13317 1.88315C8.48317 0.833149 10.6415 0.783149 12.0415 1.76648L17.1915 5.37481C18.1832 6.06648 18.9582 7.54982 18.9582 8.75815V14.8248C18.9582 17.0998 17.1082 18.9581 14.8248 18.9581ZM7.89984 2.86648L3.40817 6.36648C2.8165 6.83315 2.2915 7.89148 2.2915 8.64148V14.8165C2.2915 16.4081 3.58317 17.7081 5.17484 17.7081H14.8248C16.4165 17.7081 17.7082 16.4165 17.7082 14.8248V8.75815C17.7082 7.95815 17.1332 6.84981 16.4748 6.39982L11.3248 2.79148C10.3748 2.12482 8.80817 2.15815 7.89984 2.86648Z" fill="#F5F5F5"/>
<path d="M10 15.625C9.65833 15.625 9.375 15.3417 9.375 15V12.5C9.375 12.1583 9.65833 11.875 10 11.875C10.3417 11.875 10.625 12.1583 10.625 12.5V15C10.625 15.3417 10.3417 15.625 10 15.625Z" fill="#F5F5F5"/>
</svg>
