<svg width="20" height="20" viewBox="0 0 20 20" fill="none" xmlns="http://www.w3.org/2000/svg">
<path d="M12.4504 6.69974C12.6337 7.06641 12.7421 7.48307 12.7421 7.92474C12.7337 9.39974 11.5754 10.6081 10.1087 10.6497C10.0504 10.6414 9.97539 10.6414 9.90872 10.6497C8.44206 10.5997 7.27539 9.39974 7.27539 7.92474C7.27539 6.41641 8.49206 5.19141 10.0087 5.19141" stroke="#EAECEF" stroke-width="1.2" stroke-linecap="round" stroke-linejoin="round"/>
<path d="M15.6161 16.1498C14.1328 17.5081 12.1661 18.3331 9.99948 18.3331C7.83281 18.3331 5.86615 17.5081 4.38281 16.1498C4.46615 15.3665 4.96615 14.5998 5.85781 13.9998C8.14115 12.4831 11.8745 12.4831 14.1411 13.9998C15.0328 14.5998 15.5328 15.3665 15.6161 16.1498Z" stroke="#EAECEF" stroke-width="1.2" stroke-linecap="round" stroke-linejoin="round"/>
<path d="M3.33268 5.00033C2.29102 6.39199 1.66602 8.12533 1.66602 10.0003C1.66602 14.6003 5.39935 18.3337 9.99935 18.3337C14.5993 18.3337 18.3327 14.6003 18.3327 10.0003C18.3327 5.40033 14.5993 1.66699 9.99935 1.66699C8.80768 1.66699 7.66602 1.91699 6.64102 2.37533" stroke="#EAECEF" stroke-width="1.2" stroke-linecap="round" stroke-linejoin="round"/>
</svg>
