<svg width="84" height="84" viewBox="0 0 84 84" fill="none" xmlns="http://www.w3.org/2000/svg">
<circle cx="42" cy="42" r="42" fill="#FFB224" fill-opacity="0.2"/>
<ellipse cx="42.3" cy="41.8" rx="29.3" ry="28.8" fill="#FFB224"/>
<path d="M41.9394 52.0002C42.7834 52.0052 43.4923 52.2988 44.0662 52.8809C44.6414 53.4617 44.9264 54.1741 44.9213 55.0181C44.9163 55.8621 44.6227 56.571 44.0406 57.1449C43.4598 57.7201 42.7474 58.0051 41.9034 58C41.0594 57.995 40.3505 57.7014 39.7766 57.1193C39.2028 56.5371 38.9177 55.8247 38.9215 54.9821C38.9252 54.1394 39.2188 53.4305 39.8022 52.8553C40.383 52.2801 41.0954 51.9951 41.9394 52.0002ZM44.0956 26.0126L43.9727 46.4723L39.9727 46.4482L40.0957 25.9886L44.0956 26.0126Z" fill="#EAECEF"/>
</svg>
