<svg width="84" height="84" viewBox="0 0 84 84" fill="none" xmlns="http://www.w3.org/2000/svg">
<circle cx="42" cy="42" r="42" fill="#0ACF83" fill-opacity="0.3"/>
<ellipse cx="42.3" cy="41.8" rx="29.3" ry="28.8" fill="#0ACF83"/>
<mask id="path-3-inside-1_614_3419" fill="white">
<path fill-rule="evenodd" clip-rule="evenodd" d="M54.0601 33.94C54.341 34.2213 54.4987 34.6025 54.4987 35C54.4987 35.3975 54.341 35.7788 54.0601 36.06L40.0601 50.06C39.7788 50.3409 39.3976 50.4987 39.0001 50.4987C38.6026 50.4987 38.2213 50.3409 37.9401 50.06L29.9401 42.06C29.7927 41.9227 29.6745 41.7571 29.5925 41.5731C29.5105 41.3891 29.4664 41.1905 29.4629 40.9891C29.4593 40.7877 29.4964 40.5876 29.5718 40.4008C29.6473 40.2141 29.7595 40.0444 29.902 39.9019C30.0444 39.7595 30.2141 39.6472 30.4009 39.5718C30.5876 39.4963 30.7877 39.4593 30.9891 39.4628C31.1905 39.4664 31.3891 39.5105 31.5731 39.5925C31.7571 39.6744 31.9227 39.7926 32.0601 39.94L39.0001 46.88L51.9401 33.94C52.2213 33.6591 52.6026 33.5013 53.0001 33.5013C53.3976 33.5013 53.7788 33.6591 54.0601 33.94Z"/>
</mask>
<path fill-rule="evenodd" clip-rule="evenodd" d="M54.0601 33.94C54.341 34.2213 54.4987 34.6025 54.4987 35C54.4987 35.3975 54.341 35.7788 54.0601 36.06L40.0601 50.06C39.7788 50.3409 39.3976 50.4987 39.0001 50.4987C38.6026 50.4987 38.2213 50.3409 37.9401 50.06L29.9401 42.06C29.7927 41.9227 29.6745 41.7571 29.5925 41.5731C29.5105 41.3891 29.4664 41.1905 29.4629 40.9891C29.4593 40.7877 29.4964 40.5876 29.5718 40.4008C29.6473 40.2141 29.7595 40.0444 29.902 39.9019C30.0444 39.7595 30.2141 39.6472 30.4009 39.5718C30.5876 39.4963 30.7877 39.4593 30.9891 39.4628C31.1905 39.4664 31.3891 39.5105 31.5731 39.5925C31.7571 39.6744 31.9227 39.7926 32.0601 39.94L39.0001 46.88L51.9401 33.94C52.2213 33.6591 52.6026 33.5013 53.0001 33.5013C53.3976 33.5013 53.7788 33.6591 54.0601 33.94Z" fill="#EAECEF"/>
<path d="M54.0601 33.94L56.1827 31.82L56.1801 31.8174L54.0601 33.94ZM54.0601 36.06L56.1814 38.1813L56.1827 38.18L54.0601 36.06ZM40.0601 50.06L42.1801 52.1827L42.1814 52.1813L40.0601 50.06ZM37.9401 50.06L35.8187 52.1813L35.8201 52.1827L37.9401 50.06ZM29.9401 42.06L32.0614 39.9387L32.024 39.9013L31.9852 39.8652L29.9401 42.06ZM32.0601 39.94L29.8652 41.9852L29.9013 42.0239L29.9387 42.0613L32.0601 39.94ZM39.0001 46.88L36.8787 49.0013L39.0001 51.1227L41.1214 49.0013L39.0001 46.88ZM51.9401 33.94L49.8201 31.8174L49.8187 31.8187L51.9401 33.94ZM53.0001 33.5013V36.5013V33.5013ZM51.9374 36.06C51.6565 35.7788 51.4987 35.3975 51.4987 35H57.4987C57.4987 33.8075 57.0254 32.6638 56.1827 31.82L51.9374 36.06ZM51.4987 35C51.4987 34.6025 51.6565 34.2213 51.9374 33.94L56.1827 38.18C57.0254 37.3363 57.4987 36.1925 57.4987 35H51.4987ZM51.9387 33.9387L37.9387 47.9387L42.1814 52.1813L56.1814 38.1813L51.9387 33.9387ZM37.9401 47.9374C38.2213 47.6565 38.6026 47.4987 39.0001 47.4987V53.4987C40.1926 53.4987 41.3363 53.0254 42.1801 52.1827L37.9401 47.9374ZM39.0001 47.4987C39.3976 47.4987 39.7788 47.6565 40.0601 47.9374L35.8201 52.1827C36.6638 53.0254 37.8076 53.4987 39.0001 53.4987V47.4987ZM40.0614 47.9387L32.0614 39.9387L27.8187 44.1813L35.8187 52.1813L40.0614 47.9387ZM31.9852 39.8652C32.1326 40.0025 32.2508 40.1681 32.3328 40.3521L26.8522 42.7941C27.0982 43.3461 27.4528 43.8429 27.8949 44.2549L31.9852 39.8652ZM32.3328 40.3521C32.4148 40.5361 32.4589 40.7347 32.4624 40.9361L26.4633 41.042C26.474 41.6462 26.6063 42.2421 26.8522 42.7941L32.3328 40.3521ZM32.4624 40.9361C32.466 41.1375 32.4289 41.3376 32.3535 41.5244L26.7902 39.2773C26.5638 39.8376 26.4527 40.4378 26.4633 41.042L32.4624 40.9361ZM32.3535 41.5244C32.278 41.7112 32.1657 41.8808 32.0233 42.0233L27.7807 37.7806C27.3534 38.2079 27.0165 38.7169 26.7902 39.2773L32.3535 41.5244ZM32.0233 42.0233C31.8809 42.1657 31.7112 42.278 31.5244 42.3534L29.2773 36.7901C28.717 37.0164 28.208 37.3533 27.7807 37.7806L32.0233 42.0233ZM31.5244 42.3534C31.3377 42.4289 31.1376 42.4659 30.9362 42.4624L31.042 36.4633C30.4378 36.4526 29.8376 36.5638 29.2773 36.7901L31.5244 42.3534ZM30.9362 42.4624C30.7348 42.4588 30.5361 42.4147 30.3522 42.3328L32.7941 36.8522C32.2421 36.6062 31.6463 36.474 31.042 36.4633L30.9362 42.4624ZM30.3522 42.3328C30.1682 42.2508 30.0026 42.1326 29.8652 41.9852L34.2549 37.8949C33.8429 37.4527 33.3461 37.0981 32.7941 36.8522L30.3522 42.3328ZM29.9387 42.0613L36.8787 49.0013L41.1214 44.7587L34.1814 37.8187L29.9387 42.0613ZM41.1214 49.0013L54.0614 36.0613L49.8187 31.8187L36.8787 44.7587L41.1214 49.0013ZM54.0601 36.0627C53.7788 36.3436 53.3976 36.5013 53.0001 36.5013V30.5013C51.8076 30.5013 50.6638 30.9747 49.8201 31.8174L54.0601 36.0627ZM53.0001 36.5013C52.6026 36.5013 52.2213 36.3436 51.9401 36.0627L56.1801 31.8174C55.3363 30.9747 54.1926 30.5013 53.0001 30.5013V36.5013Z" fill="#EAECEF" mask="url(#path-3-inside-1_614_3419)"/>
</svg>
