<svg width="84" height="84" viewBox="0 0 84 84" fill="none" xmlns="http://www.w3.org/2000/svg">
<circle cx="42" cy="42" r="42" fill="#0ACF83" fill-opacity="0.3"/>
<ellipse cx="42.3" cy="41.8" rx="29.3" ry="28.8" fill="#0ACF83"/>
<mask id="path-3-inside-1_1425_17411" fill="white">
<path fill-rule="evenodd" clip-rule="evenodd" d="M54.0603 33.9397C54.3412 34.2209 54.499 34.6022 54.499 34.9997C54.499 35.3972 54.3412 35.7784 54.0603 36.0597L40.0603 50.0597C39.7791 50.3406 39.3978 50.4983 39.0003 50.4983C38.6028 50.4983 38.2216 50.3406 37.9403 50.0597L29.9403 42.0597C29.7929 41.9223 29.6747 41.7567 29.5927 41.5727C29.5108 41.3887 29.4667 41.1901 29.4631 40.9887C29.4596 40.7873 29.4966 40.5872 29.5721 40.4005C29.6475 40.2137 29.7598 40.044 29.9022 39.9016C30.0447 39.7591 30.2143 39.6469 30.4011 39.5714C30.5879 39.496 30.7879 39.4589 30.9894 39.4625C31.1908 39.466 31.3894 39.5101 31.5734 39.5921C31.7574 39.6741 31.923 39.7923 32.0603 39.9397L39.0003 46.8797L51.9403 33.9397C52.2216 33.6588 52.6028 33.501 53.0003 33.501C53.3978 33.501 53.7791 33.6588 54.0603 33.9397Z"/>
</mask>
<path fill-rule="evenodd" clip-rule="evenodd" d="M54.0603 33.9397C54.3412 34.2209 54.499 34.6022 54.499 34.9997C54.499 35.3972 54.3412 35.7784 54.0603 36.0597L40.0603 50.0597C39.7791 50.3406 39.3978 50.4983 39.0003 50.4983C38.6028 50.4983 38.2216 50.3406 37.9403 50.0597L29.9403 42.0597C29.7929 41.9223 29.6747 41.7567 29.5927 41.5727C29.5108 41.3887 29.4667 41.1901 29.4631 40.9887C29.4596 40.7873 29.4966 40.5872 29.5721 40.4005C29.6475 40.2137 29.7598 40.044 29.9022 39.9016C30.0447 39.7591 30.2143 39.6469 30.4011 39.5714C30.5879 39.496 30.7879 39.4589 30.9894 39.4625C31.1908 39.466 31.3894 39.5101 31.5734 39.5921C31.7574 39.6741 31.923 39.7923 32.0603 39.9397L39.0003 46.8797L51.9403 33.9397C52.2216 33.6588 52.6028 33.501 53.0003 33.501C53.3978 33.501 53.7791 33.6588 54.0603 33.9397Z" fill="#EAECEF"/>
<path d="M54.0603 33.9397L56.1829 31.8197L56.1803 31.817L54.0603 33.9397ZM54.0603 36.0597L56.1816 38.181L56.1829 38.1797L54.0603 36.0597ZM40.0603 50.0597L42.1803 52.1823L42.1816 52.181L40.0603 50.0597ZM37.9403 50.0597L35.819 52.181L35.8203 52.1823L37.9403 50.0597ZM29.9403 42.0597L32.0616 39.9383L32.0242 39.9009L31.9855 39.8648L29.9403 42.0597ZM32.0603 39.9397L29.8655 41.9848L29.9016 42.0235L29.939 42.061L32.0603 39.9397ZM39.0003 46.8797L36.879 49.001L39.0003 51.1223L41.1216 49.001L39.0003 46.8797ZM51.9403 33.9397L49.8203 31.817L49.819 31.8183L51.9403 33.9397ZM53.0003 33.501V36.501V33.501ZM51.9377 36.0597C51.6568 35.7784 51.499 35.3972 51.499 34.9997H57.499C57.499 33.8072 57.0257 32.6634 56.1829 31.8197L51.9377 36.0597ZM51.499 34.9997C51.499 34.6022 51.6568 34.2209 51.9377 33.9397L56.1829 38.1797C57.0257 37.3359 57.499 36.1922 57.499 34.9997H51.499ZM51.939 33.9383L37.939 47.9383L42.1816 52.181L56.1816 38.181L51.939 33.9383ZM37.9403 47.937C38.2216 47.6561 38.6028 47.4983 39.0003 47.4983V53.4983C40.1928 53.4983 41.3366 53.025 42.1803 52.1823L37.9403 47.937ZM39.0003 47.4983C39.3978 47.4983 39.7791 47.6561 40.0603 47.937L35.8203 52.1823C36.6641 53.025 37.8078 53.4983 39.0003 53.4983V47.4983ZM40.0616 47.9383L32.0616 39.9383L27.819 44.181L35.819 52.181L40.0616 47.9383ZM31.9855 39.8648C32.1328 40.0021 32.2511 40.1677 32.333 40.3517L26.8525 42.7937C27.0984 43.3457 27.453 43.8425 27.8951 44.2545L31.9855 39.8648ZM32.333 40.3517C32.415 40.5358 32.4591 40.7344 32.4627 40.9358L26.4636 41.0416C26.4743 41.6458 26.6065 42.2417 26.8525 42.7937L32.333 40.3517ZM32.4627 40.9358C32.4662 41.1372 32.4292 41.3372 32.3537 41.524L26.7904 39.2769C26.5641 39.8372 26.4529 40.4374 26.4636 41.0416L32.4627 40.9358ZM32.3537 41.524C32.2783 41.7108 32.166 41.8805 32.0236 42.0229L27.7809 37.7803C27.3536 38.2076 27.0167 38.7166 26.7904 39.2769L32.3537 41.524ZM32.0236 42.0229C31.8811 42.1653 31.7115 42.2776 31.5247 42.3531L29.2776 36.7898C28.7172 37.0161 28.2082 37.353 27.7809 37.7803L32.0236 42.0229ZM31.5247 42.3531C31.3379 42.4285 31.1378 42.4656 30.9364 42.462L31.0423 36.4629C30.4381 36.4523 29.8379 36.5634 29.2776 36.7898L31.5247 42.3531ZM30.9364 42.462C30.735 42.4585 30.5364 42.4144 30.3524 42.3324L32.7944 36.8518C32.2424 36.6059 31.6465 36.4736 31.0423 36.4629L30.9364 42.462ZM30.3524 42.3324C30.1684 42.2504 30.0028 42.1322 29.8655 41.9848L34.2551 37.8945C33.8432 37.4524 33.3464 37.0978 32.7944 36.8518L30.3524 42.3324ZM29.939 42.061L36.879 49.001L41.1216 44.7583L34.1816 37.8183L29.939 42.061ZM41.1216 49.001L54.0616 36.061L49.819 31.8183L36.879 44.7583L41.1216 49.001ZM54.0603 36.0623C53.7791 36.3432 53.3978 36.501 53.0003 36.501V30.501C51.8078 30.501 50.6641 30.9743 49.8203 31.817L54.0603 36.0623ZM53.0003 36.501C52.6028 36.501 52.2216 36.3432 51.9403 36.0623L56.1803 31.817C55.3366 30.9743 54.1928 30.501 53.0003 30.501V36.501Z" fill="#EAECEF" mask="url(#path-3-inside-1_1425_17411)"/>
</svg>
