<svg width="44" height="44" viewBox="0 0 44 44" fill="none" xmlns="http://www.w3.org/2000/svg">
<circle cx="22" cy="22" r="22" fill="#FFF0D3"/>
<ellipse cx="22.1572" cy="21.8953" rx="15.3476" ry="15.0857" fill="#FFB224"/>
<path d="M21.9685 27.2382C22.4106 27.2409 22.7819 27.3947 23.0825 27.6996C23.3838 28.0038 23.5331 28.377 23.5304 28.8191C23.5278 29.2612 23.374 29.6325 23.0691 29.9331C22.7648 30.2344 22.3917 30.3837 21.9496 30.381C21.5075 30.3784 21.1362 30.2246 20.8356 29.9197C20.535 29.6147 20.3857 29.2416 20.3876 28.8002C20.3896 28.3588 20.5434 27.9875 20.849 27.6862C21.1532 27.3849 21.5264 27.2356 21.9685 27.2382ZM23.0979 13.6257L23.0335 24.3427L20.9383 24.3301L21.0027 13.6131L23.0979 13.6257Z" fill="#EAECEF"/>
</svg>
