<svg width="20" height="20" viewBox="0 0 20 20" fill="none" xmlns="http://www.w3.org/2000/svg">
<path d="M1.66699 9.63324V11.1916C1.66699 13.6916 3.33366 15.3583 5.83366 15.3583H9.16699L12.8753 17.8249C13.4253 18.1916 14.167 17.8 14.167 17.1333V15.3583C16.667 15.3583 18.3337 13.6916 18.3337 11.1916V6.19157C18.3337 3.69157 16.667 2.0249 14.167 2.0249H5.83366C3.33366 2.0249 1.66699 3.69157 1.66699 6.19157" stroke="#111315" stroke-width="1.2" stroke-miterlimit="10" stroke-linecap="round" stroke-linejoin="round"/>
<path d="M9.99952 9.46655V9.29159C9.99952 8.72492 10.3495 8.4249 10.6995 8.18324C11.0412 7.9499 11.3828 7.64991 11.3828 7.09991C11.3828 6.33325 10.7662 5.71655 9.99952 5.71655C9.23286 5.71655 8.61621 6.33325 8.61621 7.09991" stroke="#111315" stroke-width="1.2" stroke-linecap="round" stroke-linejoin="round"/>
<path d="M9.99592 11.4584H10.0034" stroke="#111315" stroke-width="1.2" stroke-linecap="round" stroke-linejoin="round"/>
</svg>
