<svg width="20" height="20" viewBox="0 0 20 20" fill="none" xmlns="http://www.w3.org/2000/svg">
<path d="M12.4504 6.69998C12.6337 7.06665 12.7421 7.48332 12.7421 7.92498C12.7337 9.39998 11.5754 10.6083 10.1087 10.65C10.0504 10.6417 9.97539 10.6417 9.90872 10.65C8.44206 10.6 7.27539 9.39998 7.27539 7.92498C7.27539 6.41665 8.49206 5.19165 10.0087 5.19165" stroke="#111315" stroke-width="1.2" stroke-linecap="round" stroke-linejoin="round"/>
<path d="M15.6171 16.15C14.1338 17.5084 12.1671 18.3334 10.0005 18.3334C7.83379 18.3334 5.86712 17.5084 4.38379 16.15C4.46712 15.3667 4.96712 14.6 5.85879 14C8.14212 12.4834 11.8755 12.4834 14.1421 14C15.0338 14.6 15.5338 15.3667 15.6171 16.15Z" stroke="#111315" stroke-width="1.2" stroke-linecap="round" stroke-linejoin="round"/>
<path d="M3.33366 5.00008C2.29199 6.39175 1.66699 8.12508 1.66699 10.0001C1.66699 14.6001 5.40033 18.3334 10.0003 18.3334C14.6003 18.3334 18.3337 14.6001 18.3337 10.0001C18.3337 5.40008 14.6003 1.66675 10.0003 1.66675C8.80866 1.66675 7.66699 1.91675 6.64199 2.37508" stroke="#171717" stroke-width="1.2" stroke-linecap="round" stroke-linejoin="round"/>
</svg>
