<svg width="44" height="44" viewBox="0 0 44 44" fill="none" xmlns="http://www.w3.org/2000/svg">
<circle cx="22" cy="22" r="22" fill="#0ACF83" fill-opacity="0.3"/>
<ellipse cx="22.1572" cy="21.8953" rx="15.3476" ry="15.0857" fill="#0ACF83"/>
<mask id="path-3-inside-1_1939_48242" fill="white">
<path fill-rule="evenodd" clip-rule="evenodd" d="M28.317 17.7782C28.4641 17.9255 28.5468 18.1252 28.5468 18.3334C28.5468 18.5416 28.4641 18.7413 28.317 18.8886L20.9836 26.222C20.8363 26.3691 20.6366 26.4517 20.4284 26.4517C20.2202 26.4517 20.0205 26.3691 19.8732 26.222L15.6827 22.0315C15.6055 21.9596 15.5436 21.8728 15.5006 21.7764C15.4577 21.6801 15.4346 21.576 15.4327 21.4705C15.4309 21.365 15.4503 21.2602 15.4898 21.1624C15.5293 21.0646 15.5881 20.9757 15.6627 20.9011C15.7374 20.8265 15.8262 20.7676 15.9241 20.7281C16.0219 20.6886 16.1267 20.6692 16.2322 20.6711C16.3377 20.6729 16.4417 20.696 16.5381 20.739C16.6345 20.7819 16.7212 20.8438 16.7932 20.921L20.4284 24.5563L27.2065 17.7782C27.3538 17.631 27.5535 17.5484 27.7617 17.5484C27.97 17.5484 28.1697 17.631 28.317 17.7782Z"/>
</mask>
<path fill-rule="evenodd" clip-rule="evenodd" d="M28.317 17.7782C28.4641 17.9255 28.5468 18.1252 28.5468 18.3334C28.5468 18.5416 28.4641 18.7413 28.317 18.8886L20.9836 26.222C20.8363 26.3691 20.6366 26.4517 20.4284 26.4517C20.2202 26.4517 20.0205 26.3691 19.8732 26.222L15.6827 22.0315C15.6055 21.9596 15.5436 21.8728 15.5006 21.7764C15.4577 21.6801 15.4346 21.576 15.4327 21.4705C15.4309 21.365 15.4503 21.2602 15.4898 21.1624C15.5293 21.0646 15.5881 20.9757 15.6627 20.9011C15.7374 20.8265 15.8262 20.7676 15.9241 20.7281C16.0219 20.6886 16.1267 20.6692 16.2322 20.6711C16.3377 20.6729 16.4417 20.696 16.5381 20.739C16.6345 20.7819 16.7212 20.8438 16.7932 20.921L20.4284 24.5563L27.2065 17.7782C27.3538 17.631 27.5535 17.5484 27.7617 17.5484C27.97 17.5484 28.1697 17.631 28.317 17.7782Z" fill="#EAECEF"/>
<path d="M28.317 17.7782L29.4288 16.6677L29.4275 16.6663L28.317 17.7782ZM28.317 18.8886L29.4281 19.9998L29.4288 19.9991L28.317 18.8886ZM20.9836 26.222L22.0941 27.3338L22.0948 27.3331L20.9836 26.222ZM19.8732 26.222L18.762 27.3331L18.7627 27.3338L19.8732 26.222ZM15.6827 22.0315L16.7939 20.9203L16.7743 20.9007L16.754 20.8818L15.6827 22.0315ZM16.7932 20.921L15.6435 21.9923L15.6624 22.0126L15.682 22.0322L16.7932 20.921ZM20.4284 24.5563L19.3172 25.6674L20.4284 26.7786L21.5396 25.6674L20.4284 24.5563ZM27.2065 17.7782L26.096 16.6663L26.0953 16.667L27.2065 17.7782ZM27.7617 17.5484V19.1198V17.5484ZM27.2051 18.8886C27.058 18.7413 26.9753 18.5416 26.9753 18.3334H30.1182C30.1182 17.7088 29.8703 17.1096 29.4288 16.6677L27.2051 18.8886ZM26.9753 18.3334C26.9753 18.1252 27.058 17.9255 27.2051 17.7782L29.4288 19.9991C29.8703 19.5571 30.1182 18.958 30.1182 18.3334H26.9753ZM27.2058 17.7775L19.8725 25.1108L22.0948 27.3331L29.4281 19.9998L27.2058 17.7775ZM19.8732 25.1101C20.0205 24.963 20.2202 24.8803 20.4284 24.8803V28.0232C21.053 28.0232 21.6522 27.7752 22.0941 27.3338L19.8732 25.1101ZM20.4284 24.8803C20.6366 24.8803 20.8363 24.963 20.9836 25.1101L18.7627 27.3338C19.2047 27.7752 19.8038 28.0232 20.4284 28.0232V24.8803ZM20.9843 25.1108L16.7939 20.9203L14.5715 23.1427L18.762 27.3331L20.9843 25.1108ZM16.754 20.8818C16.8312 20.9537 16.8931 21.0405 16.936 21.1369L14.0652 22.416C14.1941 22.7051 14.3798 22.9654 14.6114 23.1812L16.754 20.8818ZM16.936 21.1369C16.979 21.2333 17.0021 21.3373 17.0039 21.4428L13.8616 21.4982C13.8671 21.8147 13.9364 22.1269 14.0652 22.416L16.936 21.1369ZM17.0039 21.4428C17.0058 21.5483 16.9864 21.6531 16.9469 21.7509L14.0327 20.5739C13.9142 20.8674 13.856 21.1817 13.8616 21.4982L17.0039 21.4428ZM16.9469 21.7509C16.9073 21.8488 16.8485 21.9376 16.7739 22.0122L14.5516 19.7899C14.3278 20.0137 14.1513 20.2803 14.0327 20.5739L16.9469 21.7509ZM16.7739 22.0122C16.6993 22.0868 16.6104 22.1457 16.5126 22.1852L15.3355 19.2711C15.042 19.3896 14.7754 19.5661 14.5516 19.7899L16.7739 22.0122ZM16.5126 22.1852C16.4148 22.2247 16.31 22.2441 16.2045 22.2422L16.2599 19.0999C15.9434 19.0943 15.629 19.1525 15.3355 19.2711L16.5126 22.1852ZM16.2045 22.2422C16.099 22.2404 15.9949 22.2173 15.8985 22.1743L17.1777 19.3036C16.8885 19.1747 16.5764 19.1055 16.2599 19.0999L16.2045 22.2422ZM15.8985 22.1743C15.8022 22.1314 15.7154 22.0695 15.6435 21.9923L17.9428 19.8497C17.727 19.6181 17.4668 19.4324 17.1777 19.3036L15.8985 22.1743ZM15.682 22.0322L19.3172 25.6674L21.5396 23.4451L17.9043 19.8098L15.682 22.0322ZM21.5396 25.6674L28.3177 18.8893L26.0953 16.667L19.3172 23.4451L21.5396 25.6674ZM28.317 18.89C28.1697 19.0372 27.97 19.1198 27.7617 19.1198V15.9769C27.1371 15.9769 26.538 16.2249 26.096 16.6663L28.317 18.89ZM27.7617 19.1198C27.5535 19.1198 27.3538 19.0372 27.2065 18.89L29.4275 16.6663C28.9855 16.2249 28.3864 15.9769 27.7617 15.9769V19.1198Z" fill="#EAECEF" mask="url(#path-3-inside-1_1939_48242)"/>
</svg>
